<svg xmlns="http://www.w3.org/2000/svg" viewBox="0 0 220 50" width="220" height="50">
  <defs>
    <linearGradient id="textGrad3" x1="0%" y1="0%" x2="100%" y2="0%">
      <stop offset="0%" style="stop-color:#28a745" />
      <stop offset="40%" style="stop-color:#28a745" />
      <stop offset="50%" style="stop-color:#20c997" />
      <stop offset="60%" style="stop-color:#fd7e14" />
      <stop offset="100%" style="stop-color:#fd7e14" />
    </linearGradient>
  </defs>
  
  <!-- Option 3: Two overlapping chat bubbles -->
  <g transform="translate(5, 4)">
    <!-- Back bubble (green) -->
    <path d="M0,8 Q0,2 8,2 L26,2 Q32,2 32,8 L32,20 Q32,26 26,26 L14,26 L6,34 L6,26 Q0,26 0,20 Z" 
          fill="#28a745"/>
    <circle cx="10" cy="14" r="2" fill="white"/>
    <circle cx="16" cy="14" r="2" fill="white"/>
    <circle cx="22" cy="14" r="2" fill="white"/>
    
    <!-- Front bubble (orange) - overlapping -->
    <path d="M18,14 Q18,8 26,8 L44,8 Q50,8 50,14 L50,26 Q50,32 44,32 L32,32 L24,40 L24,32 Q18,32 18,26 Z" 
          fill="#fd7e14"/>
    <circle cx="28" cy="20" r="2" fill="white"/>
    <circle cx="34" cy="20" r="2" fill="white"/>
    <circle cx="40" cy="20" r="2" fill="white"/>
  </g>
  
  <!-- Tradoja text -->
  <text x="60" y="35" font-family="Arial, sans-serif" font-size="28" font-weight="bold" fill="url(#textGrad3)">
    Tradoja
  </text>
</svg>